<svg id="Daft_Doris" data-name="Daft Doris" xmlns="http://www.w3.org/2000/svg" viewBox="0 0 1760.24 344.84"><path d="M248.72,145.62c0,74.18-50.36,120.11-126.91,120.11H0V223.2H20.41V70.09H0V27.56H113.64C191.56,27.56,248.72,71.45,248.72,145.62Zm-85.4,0c0-48-25.18-73.49-54.78-73.49H98v149h14.29C141.54,221.16,163.32,193.26,163.32,145.62Z"/><path d="M563.44,79.62v5.44H597.8v41.17H563.44v98.33H589v41.17H470.89V224.56h20.76V126.23H470.89V85.06h20.76V77.24c0-35,30.62-60.23,77.91-60.23a314.49,314.49,0,0,1,37.43,2V62.26a83.51,83.51,0,0,0-19.06-2.38C571.94,59.88,563.44,67.71,563.44,79.62Z"/><path d="M625.36,203.47V126.23H603.24V85.06h22.12V42.87h71.79V85.06h35v41.17h-35v75.53c0,12.93,8.85,21.1,20.41,21.1a69.22,69.22,0,0,0,18.72-2.72V264a201.83,201.83,0,0,1-38.45,4.08C650.54,268.11,625.36,244,625.36,203.47Z"/><path d="M1070.73,145.62c0,74.18-50.35,120.11-126.91,120.11H822V223.2h20.42V70.09H822V27.56H935.66C1013.57,27.56,1070.73,71.45,1070.73,145.62Zm-85.4,0c0-48-25.18-73.49-54.78-73.49H920v149h14.29C963.55,221.16,985.33,193.26,985.33,145.62Z"/><path d="M1081.62,173.86c0-54.77,43.89-93.56,104.11-93.56,59.89,0,103.78,38.79,103.78,93.56,0,57.16-42.87,96.63-103.78,96.63C1124.49,270.49,1081.62,231,1081.62,173.86Zm133.37,0c0-26.19-10.88-43.89-29.26-43.89-18.71,0-29.6,17.7-29.6,43.89,0,28.24,10.89,47,29.6,47C1204.11,220.82,1215,202.1,1215,173.86Z"/><path d="M1464.05,82.34l-9.53,71.79c-10.2-3.74-22.79-6.8-35-6.8-17.69,0-28.58,7.82-28.58,22.11v55.12h25.18v41.17H1298.35V224.56h20.76V126.23h-20.76V85.06h91.19v41.85c8.16-23.82,27.9-46.61,53.07-46.61A106.69,106.69,0,0,1,1464.05,82.34Z"/><path d="M1579.74,224.56v41.17H1466.43V224.56h20.76V126.23h-20.76V85.06H1559v139.5Zm-96-190.2c0-20.07,15.65-34.36,38.1-34.36s37.77,14.29,37.77,34.36c0,20.42-15.31,35.05-37.77,35.05C1498.42,69.41,1483.79,54.78,1483.79,34.36Z"/><path d="M1757,209.25c0,35.38-29.94,61.24-69.07,61.24a84,84,0,0,1-53.76-19.05v15h-45.25V204.15h40.49A49.53,49.53,0,0,0,1672.62,230c9.53,0,15.31-5.78,15.31-13.95,0-22.45-98.67-13.27-98.67-77.91,0-32.66,25.86-57.84,64.31-57.84a80.43,80.43,0,0,1,50.35,17.35v-14h45.25v56.82h-40.48a47,47,0,0,0-39.13-21.43c-7.83,0-13.27,5.44-13.27,11.9C1656.29,154.13,1757,141.2,1757,209.25Z"/><path d="M458.61,222.37l3.68,41-87.77,7.89L370,255.61c-9.41,13.14-28.3,23.38-47.28,25.09-41.34,3.71-68.52-17.42-71.72-53-3.32-36.94,27.45-59.51,70.15-63.35a111.62,111.62,0,0,1,40,3.92l-.74-8.13c-1.37-15.25-13.49-24.75-32.47-23-20,1.8-40.52,9.11-56.51,17.38L250.82,115a247.58,247.58,0,0,1,90.53-26.58c49.81-4.48,86.17,19.92,89.95,61.94l6.64,73.88Zm-92.29-8.11c-1-10.84-9.83-18.24-22.71-17.08S323.39,207.88,324.3,218c.95,10.51,10.24,18.9,22.78,17.77S367.33,225.45,366.32,214.26Z"/></svg>