<?xml version="1.0" encoding="UTF-8"?><svg id="a" xmlns="http://www.w3.org/2000/svg" viewBox="0 0 1647.41 365.89"><g><path d="M1263.42,331.4c0,18.88-12.82,30.58-32.31,30.58h-31.01v-10.83h5.2v-38.98h-5.2v-10.83h28.93c19.84,0,34.39,11.17,34.39,30.06Zm-21.74,0c0-12.21-6.41-18.71-13.95-18.71h-2.69v37.94h3.64c7.45,0,12.99-7.1,12.99-19.23Z"/><path d="M1343.55,314.6v1.39h8.75v10.48h-8.75v25.03h6.5v10.48h-30.06v-10.48h5.28v-25.03h-5.28v-10.48h5.28v-1.99c0-8.92,7.8-15.33,19.84-15.33,3.38,0,6.76,.17,9.53,.52v11c-1.3-.35-3.29-.61-4.85-.61-4.07,0-6.24,1.99-6.24,5.02Z"/><path d="M1359.31,346.13v-19.66h-5.63v-10.48h5.63v-10.74h18.28v10.74h8.92v10.48h-8.92v19.23c0,3.29,2.25,5.37,5.2,5.37,1.56,0,3.29-.26,4.76-.69v11.17c-2.86,.61-6.67,1.04-9.79,1.04-12.04,0-18.45-6.15-18.45-16.46Z"/><path d="M1472.7,331.4c0,18.88-12.82,30.58-32.31,30.58h-31.01v-10.83h5.2v-38.98h-5.2v-10.83h28.93c19.84,0,34.39,11.17,34.39,30.06Zm-21.74,0c0-12.21-6.41-18.71-13.95-18.71h-2.69v37.94h3.64c7.45,0,12.99-7.1,12.99-19.23Z"/><path d="M1475.47,338.59c0-13.95,11.17-23.82,26.51-23.82s26.42,9.87,26.42,23.82-10.91,24.6-26.42,24.6-26.51-10.05-26.51-24.6Zm33.96,0c0-6.67-2.77-11.17-7.45-11.17s-7.54,4.5-7.54,11.17c0,7.19,2.77,11.95,7.54,11.95s7.45-4.76,7.45-11.95Z"/><path d="M1572.83,315.29l-2.43,18.28c-2.6-.95-5.8-1.73-8.92-1.73-4.5,0-7.28,1.99-7.28,5.63v14.03h6.41v10.48h-29.97v-10.48h5.28v-25.03h-5.28v-10.48h23.21v10.65c2.08-6.06,7.1-11.87,13.51-11.87,1.91,0,3.81,.17,5.46,.52Z"/><path d="M1602.28,351.5v10.48h-28.84v-10.48h5.28v-25.03h-5.28v-10.48h23.56v35.51h5.28Zm-24.43-48.42c0-5.11,3.98-8.75,9.7-8.75s9.62,3.64,9.62,8.75-3.9,8.92-9.62,8.92-9.7-3.72-9.7-8.92Z"/><path d="M1647.41,347.6c0,9.01-7.62,15.59-17.58,15.59-5.46,0-10.05-1.91-13.69-4.85v3.81h-11.52v-15.85h10.31c1.99,3.72,6.15,6.58,11,6.58,2.43,0,3.9-1.47,3.9-3.55,0-5.72-25.12-3.38-25.12-19.84,0-8.32,6.58-14.73,16.37-14.73,5.02,0,9.44,1.73,12.82,4.42v-3.55h11.52v14.47h-10.31c-1.99-3.12-5.72-5.46-9.96-5.46-1.99,0-3.38,1.39-3.38,3.03,0,5.89,25.64,2.6,25.64,19.92Z"/></g><path d="M1316.86,350.94l.94,10.44-22.34,2.01-1.14-3.98c-2.4,3.35-7.21,5.95-12.04,6.39-10.53,.95-17.44-4.43-18.26-13.49-.85-9.4,6.99-15.15,17.86-16.13,3.45-.31,7.32,.12,10.18,1l-.19-2.07c-.35-3.88-3.44-6.3-8.27-5.87-5.09,.46-10.32,2.32-14.39,4.42l-5.25-10.05c6.57-3.37,14.42-5.99,23.05-6.77,12.68-1.14,21.94,5.07,22.9,15.77l1.69,18.81,5.26-.47Zm-23.49-2.06c-.25-2.76-2.5-4.64-5.78-4.35-3.28,.29-5.15,2.72-4.91,5.31,.24,2.67,2.61,4.81,5.8,4.52s5.15-2.64,4.9-5.48Z"/><g><g><path d="M258.38,34.94h-28.59V255.21h-40.59L61.07,61.77V228.38h28.59v26.83H0v-26.83H28.59V34.94H0V8.12H69.18L197.32,200.85V34.94h-29.3V8.12h90.36v26.83Z"/><path d="M725.38,97.42h-23.65l-50.48,157.78h-38.83l-46.95-142.25-46.24,142.25h-38.83l-50.83-157.78h-24.36v-26.47h90.01v26.47h-28.94l35.65,123.9,45.53-150.37h39.89l46.24,150.02,35.3-123.54h-28.24v-26.47h84.72v26.47Z"/><path d="M868.69,203.67c0,33.53-26.12,56.12-63.18,56.12-20.47,0-37.42-8.82-49.42-22.24v17.65h-29.65v-57.18h26.83c6.35,20.83,24.36,33.53,48.71,33.53,18.71,0,31.77-10.24,31.77-25.06,0-39.53-106.25-23.3-105.54-87.89,.35-30,23.3-52.95,56.12-52.24,18.71,.35,34.95,8.12,46.24,21.53v-17.3h29.65v54.71h-26.12c-6.71-19.77-23.65-32.47-44.12-32.47-16.24,0-27.53,9.53-27.53,23.3,0,36.71,106.25,19.77,106.25,87.54Z"/><path d="M1094.59,228.73v26.47h-61.77v-31.06c-12,19.41-35.3,36-64.6,36-49.06,0-84.36-40.24-84.36-98.83s40.24-95.66,88.25-95.66c27.18,0,49.42,14.47,60.71,35.3V26.47h-26.12V0h62.12l-.35,228.73h26.12Zm-60.01-67.07c0-38.12-24.36-66.01-56.12-66.01s-56.48,26.83-56.48,65.65c0,41.3,20.83,68.83,54.36,68.83s58.24-26.12,58.24-68.48Z"/><path d="M1280.26,169.08l-141.9,.35c3.18,37.77,25.77,61.07,60.71,61.07,21.88,0,42-10.24,54.36-26.12l22.59,16.59c-16.94,26.47-45.18,39.53-78.71,39.53-58.24,0-96.36-42-96.36-99.54,0-53.3,38.47-95.31,94.25-95.31s86.13,40.24,86.13,88.95c0,4.94-.35,9.88-1.06,14.47Zm-37.06-25.77c0-28.94-19.06-49.42-49.42-49.42-27.18,0-49.06,17.3-54.36,49.42h103.78Z"/><path d="M1438.75,203.67c0,33.53-26.12,56.12-63.18,56.12-20.47,0-37.42-8.82-49.42-22.24v17.65h-29.65v-57.18h26.83c6.35,20.83,24.36,33.53,48.71,33.53,18.71,0,31.77-10.24,31.77-25.06,0-39.53-106.25-23.3-105.54-87.89,.35-30,23.3-52.95,56.12-52.24,18.71,.35,34.95,8.12,46.24,21.53v-17.3h29.65v54.71h-26.12c-6.71-19.77-23.65-32.47-44.12-32.47-16.24,0-27.53,9.53-27.53,23.3,0,36.71,106.25,19.77,106.25,87.54Z"/><path d="M1643.83,228.73v26.47h-49.77l-81.54-96.72v70.24h23.65v26.47h-85.42v-26.47h25.77V26.47h-25.77V0h61.77V152.13l61.42-56.48h-27.18v-24.71h91.07v26.47h-28.24l-58.6,54.01,67.07,77.3h25.77Z"/></g><path d="M440.04,181.12l-117.95,35c10.96,17.81,27.51,24.94,45.2,19.8,15.69-4.56,27.1-15.11,32.39-26.79l50.71,13.85c-11.61,29.79-39.25,50.5-73.96,60.58-63.08,18.33-115.13-6.35-131.91-64.09-15.03-51.73,12.95-103.65,72.35-120.92,55.4-16.1,104.71,14.09,119.55,65.15,1.65,5.67,2.82,12.21,3.61,17.41Zm-80.89-15.58c-5.04-17.36-16.78-26.61-31.47-22.34-14.02,4.07-19.55,16.18-17.26,36.5l48.73-14.16Z"/></g></svg>